<svg xmlns="http://www.w3.org/2000/svg" id="Capa_2" data-name="Capa 2" viewBox="0 0 283.46 91.66">
    <defs>
        <style>
            .cls-1 {
            fill: #0047ba;
            }

            .cls-2 {
            fill: #002856;
            }
        </style>
    </defs>
    <g id="Navetec">
        <g>
            <g>
                <polygon class="cls-2" points="91.64 26.97 66.29 91.66 52.64 91.66 31.02 19.88 13.66 64.72 0 64.72 25.06 0 38.72 0 60.35 71.95 77.98 26.97 91.64 26.97"/>
                <g>
                    <path class="cls-1" d="M157.08,26.98h22.78v5.99h-14.97v9.67h11.49v5.91h-11.49v10.02h16.57v6.16h-24.37V26.98Z"/>
                    <path class="cls-1" d="M194.69,32.97h-10.7v-5.99h29.21v5.99h-10.65v31.76h-7.85v-31.76Z"/>
                    <path class="cls-1" d="M218.54,26.98h22.78v5.99h-14.97v9.67h11.49v5.91h-11.49v10.02h16.57v6.16h-24.37V26.98Z"/>
                    <path class="cls-1" d="M247.17,45.78c0-2.93.48-5.58,1.42-7.94.95-2.36,2.25-4.34,3.9-5.95,3.36-3.27,7.69-4.91,12.99-4.91,2.95,0,5.73.34,8.35,1.03.62.16,1.23.3,1.82.42l-1.13,6.88c-1.18-.66-2.12-1.1-2.82-1.33-1.65-.54-3.4-.81-5.24-.81s-3.42.28-4.72.83c-1.31.56-2.45,1.36-3.41,2.41-2.06,2.26-3.09,5.28-3.09,9.07s1,7.07,2.99,9.49c2.08,2.5,4.86,3.75,8.35,3.75,2.39,0,4.8-.51,7.24-1.55.62-.27,1.1-.53,1.42-.77l.03,6.39c-2.39.95-4.28,1.52-5.66,1.69-1.38.18-2.64.27-3.77.27-5.7,0-10.24-1.74-13.65-5.2-3.34-3.4-5.01-8-5.01-13.78Z"/>
                    <path class="cls-1" d="M116.87,27h8.37l6.97,20.58,1.99,7.18,2.01-7.18,6.6-20.58h8.32l-13.75,37.75h-6.63l-13.89-37.75Z"/>
                    <path class="cls-1" d="M121.29,64.75h-8.37l-6.97-20.58-1.99-7.18-2.01,7.18-6.6,20.58h-8.32l13.75-37.75h6.63l13.89,37.75Z"/>
                </g>
            </g>
            <g>
                <path class="cls-2" d="M279.83,58.98c.62,0,.93.16,1.14.34.34.29.44.67.44,1.01,0,.44-.17.82-.52,1.05-.11.08-.27.15-.49.19l1.39,1.88h-1.09l-1.19-1.8h-.11v1.8h-.87v-4.47h1.29ZM279.41,61.04h.25c.17,0,.86-.02.86-.68s-.68-.67-.85-.67h-.26v1.35Z"/>
                <path class="cls-2" d="M279.95,64.76c-1.94,0-3.51-1.57-3.51-3.51s1.57-3.51,3.51-3.51,3.51,1.57,3.51,3.51-1.57,3.51-3.51,3.51ZM279.95,58.3c-1.63,0-2.95,1.32-2.95,2.95s1.32,2.95,2.95,2.95,2.95-1.32,2.95-2.95-1.32-2.95-2.95-2.95Z"/>
            </g>
        </g>
    </g>
</svg>